<?xml version="1.0" encoding="utf-8"?>
<!-- Generator: Adobe Illustrator 16.0.4, SVG Export Plug-In . SVG Version: 6.00 Build 0)  -->
<!DOCTYPE svg PUBLIC "-//W3C//DTD SVG 1.1//EN" "http://www.w3.org/Graphics/SVG/1.1/DTD/svg11.dtd">
<svg version="1.1" id="Layer_1" xmlns="http://www.w3.org/2000/svg" xmlns:xlink="http://www.w3.org/1999/xlink" x="0px" y="0px"
	 width="640px" height="417.289px" viewBox="0 0 640 417.289" enable-background="new 0 0 640 417.289" xml:space="preserve">
<circle opacity="0.4" fill="#ED4343" enable-background="new    " cx="443.506" cy="182.335" r="178.034"/>
<circle opacity="0.5" fill="#4678E8" enable-background="new    " cx="197.573" cy="182.335" r="178.033"/>
<rect x="47.338" y="134.114" fill="none" width="203.55" height="108.122"/>
<g enable-background="new    ">
	<path fill="#FFFFFF" d="M83.099,161.456H66.363v17.288h-8.716v-42.305h27.544v7.061H66.363v10.925h16.736V161.456z"/>
	<path fill="#FFFFFF" d="M105.907,163.258h-6.944v15.486h-8.716v-42.305h15.719c4.998,0,8.852,1.114,11.564,3.341
		c2.712,2.229,4.068,5.376,4.068,9.443c0,2.887-0.625,5.293-1.874,7.221s-3.143,3.462-5.68,4.605l9.152,17.287v0.407h-9.356
		L105.907,163.258z M98.963,156.197h7.032c2.188,0,3.883-0.557,5.084-1.671c1.201-1.113,1.802-2.648,1.802-4.605
		c0-1.994-0.567-3.563-1.7-4.707c-1.133-1.143-2.872-1.714-5.216-1.714h-7.002V156.197z"/>
	<path fill="#FFFFFF" d="M162.972,158.551c0,4.165-0.736,7.815-2.208,10.954c-1.472,3.138-3.579,5.56-6.319,7.264
		c-2.741,1.704-5.884,2.557-9.429,2.557c-3.506,0-6.635-0.843-9.385-2.527c-2.751-1.686-4.881-4.092-6.393-7.221
		c-1.511-3.128-2.276-6.727-2.295-10.794v-2.092c0-4.165,0.75-7.831,2.252-10.998c1.501-3.167,3.622-5.598,6.363-7.293
		c2.741-1.694,5.874-2.542,9.399-2.542c3.525,0,6.658,0.848,9.399,2.542c2.741,1.695,4.862,4.126,6.363,7.293
		c1.501,3.167,2.251,6.823,2.251,10.969V158.551z M154.14,156.633c0-4.436-0.794-7.806-2.383-10.111
		c-1.588-2.305-3.854-3.457-6.799-3.457c-2.925,0-5.182,1.138-6.77,3.414c-1.588,2.275-2.393,5.612-2.412,10.009v2.063
		c0,4.319,0.794,7.671,2.383,10.053c1.588,2.383,3.874,3.574,6.857,3.574c2.925,0,5.172-1.147,6.741-3.443
		c1.569-2.295,2.363-5.642,2.383-10.038V156.633z"/>
	<path fill="#FFFFFF" d="M203.708,178.744h-8.716l-16.969-27.835v27.835h-8.716v-42.305h8.716l16.998,27.894v-27.894h8.688V178.744z
		"/>
	<path fill="#FFFFFF" d="M242.323,143.5h-12.959v35.244h-8.716V143.5h-12.785v-7.061h34.46V143.5z"/>
</g>
<g enable-background="new    ">
	<path fill="#FFFFFF" d="M121.263,219.856h-16.736v11.391h19.642v7.002H95.811v-42.305h28.3v7.061h-19.583v10.082h16.736V219.856z"
		/>
	<path fill="#FFFFFF" d="M163.684,238.249h-8.716l-16.969-27.835v27.835h-8.716v-42.305h8.716l16.998,27.894v-27.894h8.688V238.249z
		"/>
	<path fill="#FFFFFF" d="M171.297,238.249v-42.305h13.017c3.719,0,7.046,0.838,9.98,2.514c2.935,1.675,5.225,4.058,6.872,7.147
		s2.47,6.601,2.47,10.532v1.947c0,3.932-0.809,7.429-2.426,10.488c-1.618,3.062-3.898,5.434-6.843,7.119
		c-2.944,1.685-6.267,2.537-9.966,2.557H171.297z M180.013,203.005v28.242h4.213c3.409,0,6.014-1.114,7.816-3.342
		c1.801-2.228,2.721-5.414,2.76-9.56v-2.237c0-4.3-0.891-7.559-2.673-9.776s-4.387-3.327-7.816-3.327H180.013z"/>
</g>
<rect x="387.918" y="132.82" fill="none" width="203.549" height="110.713"/>
<g enable-background="new    ">
	<path fill="#FFFFFF" d="M416.109,177.449v-42.305h14.818c5.133,0,9.025,0.983,11.68,2.949s3.98,4.848,3.98,8.644
		c0,2.073-0.532,3.898-1.598,5.478s-2.547,2.736-4.445,3.472c2.169,0.543,3.879,1.638,5.129,3.283
		c1.248,1.646,1.873,3.661,1.873,6.044c0,4.067-1.297,7.147-3.893,9.239s-6.296,3.157-11.1,3.196H416.109z M424.826,152.868h6.45
		c4.397-0.077,6.595-1.83,6.595-5.259c0-1.918-0.557-3.298-1.67-4.141c-1.114-0.843-2.872-1.264-5.273-1.264h-6.102V152.868z
		 M424.826,159.028v11.419h7.467c2.053,0,3.656-0.489,4.809-1.468c1.152-0.978,1.729-2.329,1.729-4.053
		c0-3.874-2.004-5.841-6.014-5.898H424.826z"/>
	<path fill="#FFFFFF" d="M477.969,168.732h-15.283l-2.906,8.717h-9.268l15.748-42.305h8.076l15.836,42.305h-9.27L477.969,168.732z
		 M465.039,161.672h10.576l-5.317-15.835L465.039,161.672z"/>
	<path fill="#FFFFFF" d="M526.724,163.357c-0.329,4.552-2.01,8.136-5.042,10.75c-3.031,2.615-7.026,3.923-11.984,3.923
		c-5.424,0-9.69-1.825-12.799-5.477c-3.109-3.651-4.664-8.663-4.664-15.036v-2.586c0-4.068,0.717-7.651,2.15-10.751
		c1.434-3.099,3.481-5.477,6.145-7.133c2.664-1.656,5.758-2.484,9.283-2.484c4.882,0,8.814,1.308,11.797,3.922
		c2.982,2.615,4.707,6.286,5.172,11.013h-8.717c-0.213-2.731-0.973-4.712-2.28-5.942c-1.308-1.229-3.298-1.845-5.972-1.845
		c-2.904,0-5.08,1.042-6.522,3.123c-1.442,2.083-2.185,5.313-2.223,9.69v3.196c0,4.571,0.692,7.913,2.077,10.024
		s3.569,3.167,6.553,3.167c2.691,0,4.701-0.615,6.029-1.846c1.326-1.229,2.086-3.133,2.28-5.709H526.724z"/>
	<path fill="#FFFFFF" d="M545.696,160.48l-4.532,4.882v12.087h-8.717v-42.305h8.717v19.177l3.835-5.259l10.78-13.918H566.5
		l-15.021,18.799l15.457,23.506h-10.373L545.696,160.48z"/>
</g>
<g enable-background="new    ">
	<path fill="#FFFFFF" d="M461.843,218.562h-16.736v11.391h19.642v7.002h-28.357V194.65h28.299v7.061h-19.583v10.082h16.736V218.562z
		"/>
	<path fill="#FFFFFF" d="M504.264,236.955h-8.717l-16.969-27.835v27.835h-8.717V194.65h8.717l16.998,27.894V194.65h8.688V236.955z"
		/>
	<path fill="#FFFFFF" d="M511.877,236.955V194.65h13.016c3.72,0,7.047,0.838,9.98,2.514c2.936,1.675,5.226,4.058,6.872,7.147
		s2.47,6.601,2.47,10.532v1.947c0,3.932-0.809,7.429-2.426,10.488c-1.617,3.062-3.898,5.434-6.843,7.119
		c-2.944,1.685-6.267,2.537-9.966,2.557H511.877z M520.593,201.711v28.242h4.214c3.408,0,6.014-1.114,7.815-3.342
		s2.722-5.414,2.761-9.56v-2.237c0-4.3-0.892-7.559-2.674-9.776s-4.387-3.327-7.816-3.327H520.593z"/>
</g>
<g>
	<g>
		<line fill="none" stroke="#464646" stroke-width="3" stroke-miterlimit="10" x1="319.5" y1="368.592" x2="319.5" y2="239.592"/>
		<g>
			<polygon fill="#464646" points="330.794,247.877 319.685,243.157 308.575,247.877 319.685,221.542 			"/>
		</g>
	</g>
</g>
<rect x="193.838" y="383.146" fill="none" width="259.08" height="30.102"/>
<g>
	<g enable-background="new    ">
		<path fill="#464646" d="M235.641,400.117h-10.388v10.73h-5.411V384.59h17.097v4.382h-11.686v6.781h10.388V400.117z"/>
		<path fill="#464646" d="M259.951,384.59v17.295c0,2.873-0.899,5.146-2.696,6.816c-1.798,1.672-4.253,2.507-7.367,2.507
			c-3.066,0-5.5-0.812-7.304-2.435c-1.803-1.623-2.723-3.853-2.759-6.69V384.59h5.411v17.331c0,1.719,0.412,2.973,1.235,3.76
			c0.823,0.788,1.962,1.182,3.417,1.182c3.042,0,4.586-1.599,4.635-4.798V384.59H259.951z"/>
		<path fill="#464646" d="M269.798,406.501h11.488v4.347h-16.898V384.59h5.411V406.501z"/>
		<path fill="#464646" d="M289.798,406.501h11.488v4.347h-16.898V384.59h5.411V406.501z"/>
		<path fill="#464646" d="M327.201,403.959c0-1.022-0.36-1.807-1.082-2.354c-0.721-0.548-2.02-1.124-3.895-1.731
			c-1.876-0.607-3.361-1.205-4.455-1.795c-2.982-1.61-4.472-3.781-4.472-6.51c0-1.419,0.399-2.685,1.199-3.797
			c0.799-1.111,1.948-1.98,3.444-2.605c1.497-0.625,3.176-0.938,5.041-0.938c1.876,0,3.547,0.34,5.014,1.02
			c1.467,0.679,2.606,1.638,3.417,2.876c0.812,1.238,1.218,2.646,1.218,4.221h-5.41c0-1.202-0.379-2.138-1.136-2.805
			c-0.758-0.667-1.822-1.001-3.192-1.001c-1.323,0-2.351,0.279-3.084,0.839c-0.733,0.559-1.1,1.295-1.1,2.209
			c0,0.854,0.43,1.569,1.29,2.146c0.859,0.577,2.125,1.118,3.796,1.623c3.078,0.926,5.32,2.073,6.727,3.444
			c1.407,1.37,2.11,3.078,2.11,5.122c0,2.271-0.859,4.055-2.579,5.347c-1.719,1.293-4.033,1.938-6.943,1.938
			c-2.02,0-3.859-0.369-5.518-1.108c-1.659-0.74-2.925-1.753-3.796-3.039s-1.308-2.777-1.308-4.473h5.429
			c0,2.897,1.731,4.347,5.193,4.347c1.287,0,2.291-0.262,3.012-0.785C326.841,405.627,327.201,404.896,327.201,403.959z"/>
		<path fill="#464646" d="M356.057,388.972h-8.043v21.876h-5.41v-21.876h-7.936v-4.382h21.389V388.972z"/>
		<path fill="#464646" d="M371.801,405.438h-9.486l-1.803,5.41h-5.754l9.775-26.258h5.014l9.828,26.258h-5.753L371.801,405.438z
			 M363.775,401.055h6.564l-3.301-9.828L363.775,401.055z"/>
		<path fill="#464646" d="M402.062,402.101c-0.205,2.826-1.248,5.05-3.129,6.673c-1.882,1.623-4.361,2.435-7.439,2.435
			c-3.367,0-6.015-1.133-7.944-3.399c-1.93-2.266-2.895-5.377-2.895-9.333v-1.604c0-2.525,0.444-4.749,1.335-6.673
			c0.889-1.924,2.16-3.399,3.814-4.428c1.652-1.027,3.573-1.542,5.762-1.542c3.029,0,5.471,0.812,7.322,2.435
			s2.922,3.902,3.209,6.836h-5.41c-0.132-1.695-0.604-2.925-1.415-3.688s-2.047-1.146-3.706-1.146c-1.804,0-3.153,0.646-4.049,1.939
			c-0.896,1.292-1.355,3.297-1.38,6.014v1.984c0,2.837,0.431,4.911,1.29,6.222s2.215,1.966,4.066,1.966
			c1.671,0,2.918-0.382,3.742-1.146c0.823-0.763,1.295-1.944,1.416-3.544H402.062z"/>
		<path fill="#464646" d="M413.839,400.315l-2.813,3.03v7.502h-5.41V384.59h5.41v11.902l2.381-3.265l6.69-8.638h6.655l-9.324,11.668
			l9.594,14.59h-6.438L413.839,400.315z"/>
	</g>
</g>
</svg>
