<?xml version="1.0" encoding="utf-8"?>
<!-- Generator: Adobe Illustrator 16.0.4, SVG Export Plug-In . SVG Version: 6.00 Build 0)  -->
<!DOCTYPE svg PUBLIC "-//W3C//DTD SVG 1.1//EN" "http://www.w3.org/Graphics/SVG/1.1/DTD/svg11.dtd">
<svg version="1.1" id="Layer_1" xmlns="http://www.w3.org/2000/svg" xmlns:xlink="http://www.w3.org/1999/xlink" x="0px" y="0px"
	 width="502px" height="124px" viewBox="0 0 502 124" enable-background="new 0 0 502 124" xml:space="preserve">
<g>
	<g>
		<path fill="#808184" d="M10.05,1.009h16.525c4.094,0,7.35,1.135,9.421,3.157c1.628,1.677,2.417,3.65,2.417,6.116v0.099
			c0,4.095-2.22,6.364-4.785,7.794c4.144,1.529,6.807,3.946,6.807,8.78v0.099c0,6.562-5.328,9.866-13.417,9.866H10.05V1.009z
			 M30.866,11.517c0-2.418-1.923-3.849-5.376-3.849H17.4v7.992h7.597c3.601,0,5.869-1.234,5.869-4.046V11.517z M26.723,21.974H17.4
			v8.287h9.619c3.65,0,5.871-1.332,5.871-4.095v-0.099C32.89,23.503,30.965,21.974,26.723,21.974z"/>
		<path fill="#808184" d="M59.828,0.762h7.004L82.271,36.92H74.33l-3.354-8.188H55.437l-3.354,8.188h-7.745L59.828,0.762z
			 M68.262,22.023L63.231,9.839L58.15,22.023H68.262z"/>
		<path fill="#808184" d="M84.497,19.063v-0.099c0-10.21,7.695-18.547,18.696-18.547c6.757,0,10.803,2.22,14.157,5.524l-4.834,5.575
			c-2.812-2.566-5.672-4.145-9.372-4.145c-6.215,0-10.705,5.18-10.705,11.493v0.099c0,6.314,4.39,11.593,10.705,11.593
			c4.193,0,6.757-1.677,9.619-4.292l4.834,4.884c-3.7,3.896-7.793,6.363-14.699,6.363C92.34,37.512,84.497,29.374,84.497,19.063z"/>
		<path fill="#808184" d="M124.409,1.009h7.547v16.18l14.996-16.18h9.323l-14.749,15.292l15.39,20.619h-9.125l-11.395-15.439
			l-4.439,4.587V36.92h-7.547V1.009z"/>
		<path fill="#808184" d="M186.421,8.014h-11.049V1.009h29.646v7.005h-11V36.92h-7.597V8.014z"/>
		<path fill="#808184" d="M208.376,19.063v-0.099c0-10.161,8.041-18.547,19.09-18.547c11.049,0,18.992,8.237,18.992,18.448v0.099
			c0,10.162-8.041,18.548-19.091,18.548C216.318,37.512,208.376,29.275,208.376,19.063z M238.515,19.063v-0.099
			c0-6.313-4.637-11.592-11.148-11.592c-6.511,0-11.049,5.18-11.049,11.493v0.099c0,6.314,4.636,11.593,11.148,11.593
			C233.979,30.557,238.515,25.377,238.515,19.063z"/>
		<path fill="#808184" d="M267.333,31.692l4.487-5.377c3.257,2.713,6.662,4.439,10.854,4.439c3.354,0,5.427-1.431,5.427-3.65v-0.099
			c0-2.121-1.284-3.206-7.399-4.735c-7.351-1.825-11.938-3.897-11.938-10.951v-0.098c0-6.413,5.227-10.705,12.528-10.705
			c5.229,0,9.619,1.628,13.269,4.538l-3.994,5.722c-3.156-2.269-6.313-3.601-9.421-3.601c-3.156,0-4.836,1.529-4.836,3.354v0.099
			c0,2.467,1.579,3.305,7.893,4.933c7.351,1.875,11.444,4.538,11.444,10.704v0.099c0,7.054-5.427,11.05-13.121,11.05
			C277.05,37.414,271.625,35.539,267.333,31.692z"/>
		<path fill="#808184" d="M301.424,19.063v-0.099c0-10.21,7.695-18.547,18.695-18.547c6.758,0,10.803,2.22,14.156,5.524
			l-4.833,5.575c-2.812-2.566-5.674-4.145-9.372-4.145c-6.216,0-10.705,5.18-10.705,11.493v0.099
			c0,6.314,4.392,11.593,10.705,11.593c4.191,0,6.757-1.677,9.618-4.292l4.834,4.884c-3.701,3.896-7.795,6.363-14.699,6.363
			C309.266,37.512,301.424,29.374,301.424,19.063z"/>
		<path fill="#808184" d="M341.335,1.009h7.548v14.354h15.095V1.009h7.597V36.92h-7.597V22.369h-15.095V36.92h-7.548V1.009z"/>
		<path fill="#808184" d="M379.075,19.063v-0.099c0-10.161,8.041-18.547,19.091-18.547c11.049,0,18.99,8.237,18.99,18.448v0.099
			c0,10.162-8.039,18.548-19.09,18.548C387.017,37.512,379.075,29.275,379.075,19.063z M409.215,19.063v-0.099
			c0-6.313-4.636-11.592-11.148-11.592c-6.51,0-11.05,5.18-11.05,11.493v0.099c0,6.314,4.638,11.593,11.149,11.593
			C404.677,30.557,409.215,25.377,409.215,19.063z"/>
		<path fill="#808184" d="M423.082,19.063v-0.099c0-10.161,8.041-18.547,19.091-18.547c11.049,0,18.99,8.237,18.99,18.448v0.099
			c0,10.162-8.041,18.548-19.091,18.548C431.023,37.512,423.082,29.275,423.082,19.063z M453.222,19.063v-0.099
			c0-6.313-4.636-11.592-11.149-11.592c-6.511,0-11.049,5.18-11.049,11.493v0.099c0,6.314,4.637,11.593,11.149,11.593
			C448.684,30.557,453.222,25.377,453.222,19.063z"/>
		<path fill="#808184" d="M468.717,1.009h7.547v29.005h18.104v6.906h-25.65V1.009z"/>
		<path fill="#E2231A" d="M1,112.287l8.86-10.613c6.426,5.355,13.145,8.764,21.421,8.764c6.622,0,10.71-2.824,10.71-7.206v-0.193
			c0-4.188-2.531-6.33-14.605-9.349c-14.507-3.602-23.562-7.69-23.562-21.615v-0.194c0-12.658,10.321-21.129,24.732-21.129
			c10.321,0,18.986,3.212,26.191,8.957L46.86,71.002c-6.231-4.479-12.463-7.107-18.597-7.107c-6.231,0-9.542,3.019-9.542,6.62v0.195
			c0,4.868,3.116,6.524,15.579,9.737c14.508,3.699,22.589,8.957,22.589,21.128v0.195c0,13.925-10.711,21.812-25.9,21.812
			C20.181,123.583,9.471,119.881,1,112.287z"/>
		<path fill="#E2231A" d="M94.379,51.237h13.827l30.477,71.371h-15.676l-6.622-16.163H85.713l-6.621,16.163H63.806L94.379,51.237z
			 M111.03,93.203l-9.932-24.05l-10.029,24.05H111.03z"/>
		<path fill="#E2231A" d="M150.757,51.724h16.066l19.182,30.671l19.279-30.671h16.065v70.884h-14.896V75.384l-20.448,30.963h-0.39
			l-20.252-30.671v46.932h-14.606V51.724z"/>
		<path fill="#E2231A" d="M239.464,51.724h28.723c16.846,0,27.069,9.932,27.069,24.341v0.195c0,16.358-12.756,24.732-28.529,24.732
			H254.36v21.615h-14.896V51.724z M267.214,87.653c8.08,0,12.949-4.771,12.949-11.101v-0.194c0-7.205-5.16-11.101-13.241-11.101
			H254.36v22.396H267.214z"/>
		<path fill="#E2231A" d="M307.915,51.724h14.896v57.253h35.735v13.631h-50.632V51.724z"/>
		<path fill="#E2231A" d="M371.304,51.724h53.26v13.339h-38.461v15.189h33.886v13.34h-33.886v15.677h38.948v13.339h-53.747V51.724z"
			/>
		<path fill="#E2231A" d="M439.949,51.724h32.229c8.958,0,15.97,2.531,20.643,7.205c3.895,3.895,5.938,9.444,5.938,15.968v0.195
			c0,11.489-6.327,18.694-15.479,21.908L501,122.608h-17.527l-15.675-23.077h-12.95v23.077h-14.898V51.724z M471.204,86.29
			c7.791,0,12.465-4.187,12.465-10.419v-0.194c0-6.815-4.869-10.419-12.756-10.419h-16.065V86.29H471.204z"/>
	</g>
</g>
</svg>
